<svg width="34" height="34" viewBox="0 0 34 34" fill="none" xmlns="http://www.w3.org/2000/svg">
<path fill-rule="evenodd" clip-rule="evenodd" d="M1.56073 29.6523C0.698801 30.5143 0.698802 31.9117 1.56073 32.7736C2.42266 33.6356 3.82011 33.6356 4.68204 32.7736L17.1671 20.2886L29.6523 32.7739C30.5143 33.6358 31.9117 33.6358 32.7736 32.7739C33.6356 31.912 33.6356 30.5145 32.7736 29.6526L20.2884 17.1673L32.7739 4.68182C33.6358 3.81989 33.6358 2.42244 32.7739 1.56051C31.9119 0.698583 30.5145 0.698579 29.6526 1.56051L17.1671 14.046L4.68182 1.56075C3.8199 0.698824 2.42244 0.698825 1.56051 1.56075C0.698583 2.42268 0.698579 3.82014 1.56051 4.68206L14.0458 17.1673L1.56073 29.6523Z" fill="#C6C4AF"/>
</svg>
